/vscmnt/brussel_pixiu_data/_data_brussel/112/vsc11236/PredSimResults/SUBJ09opt3D/expIG/worker_13.mot
version=1
nRows=9
nColumns=50
inDegrees=yes
endheader
                time	         pelvis_tilt	         pelvis_list	     pelvis_rotation	           pelvis_tx	           pelvis_ty	           pelvis_tz	       hip_flexion_r	     hip_adduction_r	      hip_rotation_r	        knee_angle_r	       ankle_angle_r	         mtp_angle_r	       hip_flexion_l	     hip_adduction_l	      hip_rotation_l	        knee_angle_l	       ankle_angle_l	         mtp_angle_l	    lumbar_extension	      lumbar_bending	     lumbar_rotation	 ercspn_r/activation	 intobl_r/activation	 extobl_r/activation	    abd_r/activation	    add_r/activation	hamstrings_r/activation	bifemsh_r/activation	glut_max_r/activation	iliopsoas_r/activation	rect_fem_r/activation	  vasti_r/activation	gastroc_r/activation	 soleus_r/activation	tib_ant_r/activation	 ercspn_l/activation	 intobl_l/activation	 extobl_l/activation	    abd_l/activation	    add_l/activation	hamstrings_l/activation	bifemsh_l/activation	glut_max_l/activation	iliopsoas_l/activation	rect_fem_l/activation	  vasti_l/activation	gastroc_l/activation	 soleus_l/activation	tib_ant_l/activation	
          0.50235708	         -6.27451698	          3.83265268	         -9.58006183	          0.90424274	          0.96918718	          0.00444231	        -17.45254241	         -5.40587547	         -0.50937447	         -7.12885146	          1.53705417	         40.47703496	         33.99040809	          0.10913636	         -8.75886769	         -5.27645064	          7.21421295	          0.27429162	        -11.94647084	         -3.33637296	          8.78875838	          0.02677010	          0.00999999	          0.00999999	          0.02531830	          0.02342213	          0.02580538	          0.29866755	          0.01591172	          0.31173524	          0.00999999	          0.00999999	          0.38540821	          0.18512235	          0.01872327	          0.09309674	          0.14347296	          0.01591172	          0.04307640	          0.29561188	          0.16393963	          0.23624918	          0.02822571	          0.18992982	          0.00999999	          0.00999999	          0.02955791	          0.00999999	          0.39659536	
          0.51240422	         -6.22184193	          4.01254553	         -9.59565458	          0.92687345	          0.96674958	          0.00403654	        -17.76724187	         -5.78618838	         -0.99831994	         -8.81189123	         -0.00035607	         42.52078067	         34.12378376	          0.36204566	         -8.91024748	         -7.63985701	          6.52071825	          0.26849750	        -11.45701071	         -3.72647135	          8.97237951	          0.08421815	          0.00999999	          0.00999999	          0.02168680	          0.11064326	          0.02210401	          0.25582847	          0.01362944	          0.46939819	          0.00999999	          0.00999999	          0.33012757	          0.15856951	          0.01603772	          0.07974350	          0.12289406	          0.01362944	          0.06688623	          0.36679594	          0.14042511	          0.20236301	          0.32087566	          0.16268743	          0.00999999	          0.00999999	          0.02531830	          0.01362944	          0.43478533	
          0.52245136	         -6.15555976	          4.19286823	         -9.56183760	          0.94959367	          0.96449744	          0.00355613	        -17.75704417	         -6.16819780	         -1.51029845	        -11.11275313	         -1.51366680	         44.21035923	         34.13260043	          0.62293963	         -8.98236462	        -10.01868001	          5.93420070	          0.22202827	        -10.97335259	         -4.11497503	          9.10020107	          0.09557649	          0.00999999	          0.00999999	          0.01857617	          0.09477325	          0.01893355	          0.21913397	          0.01167451	          0.56545513	          0.00999999	          0.00999999	          0.28277605	          0.13582525	          0.01373736	          0.06830557	          0.10526687	          0.01167451	          0.20162159	          0.35762396	          0.12028338	          0.17333728	          0.43198263	          0.13935252	          0.00999999	          0.00999999	          0.02168680	          0.01167451	          0.51413287	
          0.53249850	         -6.08023008	          4.36019487	         -9.47894445	          0.97196790	          0.96273763	          0.00296407	        -17.27871792	         -6.55066827	         -2.03078076	        -14.23682407	         -2.90567239	         45.14162939	         34.13178329	          0.89962338	         -9.01407702	        -12.33158318	          5.21995601	          0.18580421	        -10.54933037	         -4.48750871	          9.17011155	          0.13705174	          0.00999999	          0.00999999	          0.01591172	          0.09116813	          0.01621783	          0.18770271	          0.00999999	          0.48434964	          0.00999999	          0.00999999	          0.24221635	          0.11634330	          0.01176696	          0.08693458	          0.09016802	          0.00999999	          0.23893236	          0.35340916	          0.10303065	          0.14847482	          0.45298807	          0.11936463	          0.00999999	          0.08668566	          0.01857617	          0.00999999	          0.57018898	
          0.54254565	         -5.99770206	          4.51804102	         -9.35282379	          0.99380206	          0.96162972	          0.00227231	        -16.29472704	         -6.95124335	         -2.54375539	        -18.18622917	         -4.32267928	         45.23406206	         34.17707024	          1.19042571	         -8.99573662	        -14.71081209	          4.70496637	          0.12627608	        -10.20430524	         -4.85053455	          9.18149711	          0.19287510	          0.00999999	          0.00999999	          0.01362944	          0.15453921	          0.01389164	          0.16077976	          0.00999999	          0.41487743	          0.00999999	          0.00999999	          0.20747429	          0.09965571	          0.01007917	          0.07483569	          0.07723486	          0.00999999	          0.26909292	          0.34293732	          0.08825255	          0.12717848	          0.46464348	          0.10224368	          0.00999999	          0.28285712	          0.01591172	          0.00999999	          0.59855031	
          0.55259279	         -5.91422922	          4.64699260	         -9.18074393	          1.01502315	          0.96131319	          0.00151621	        -14.82099780	         -7.35528636	         -3.05373793	        -22.83107387	         -6.03393341	         44.49486481	         34.13817019	          1.48762949	         -8.94990909	        -16.95027150	          4.56828138	          0.06807532	         -9.94271489	         -5.18329945	          9.13210609	          0.17320859	          0.00999999	          0.00999999	          0.01167451	          0.19548845	          0.01189911	          0.13771847	          0.00999999	          0.35536990	          0.00999999	          0.00999999	          0.17771542	          0.08536169	          0.00999999	          0.06410171	          0.06615676	          0.00999999	          0.31176067	          0.30108494	          0.07559414	          0.10893676	          0.42841211	          0.08757846	          0.00999999	          0.42026661	          0.01362944	          0.00999999	          0.59360197	
          0.56263993	         -5.83723033	          4.73928244	         -8.96190188	          1.03554371	          0.96188487	          0.00074039	        -12.89804919	         -7.76101425	         -3.55560829	        -27.97969748	         -8.23908729	         42.86294887	         33.91101746	          1.79806233	         -8.85031096	        -18.84107728	          4.77320989	          0.02739715	         -9.76868751	         -5.48124608	          9.01866795	          0.15446049	          0.00999999	          0.00999999	          0.00999999	          0.21071681	          0.01019237	          0.11796496	          0.00999999	          0.30439778	          0.00999999	          0.00999999	          0.15222499	          0.07311792	          0.00999999	          0.05490735	          0.05666763	          0.00999999	          0.34535983	          0.29445511	          0.06840661	          0.09331153	          0.36696325	          0.07501673	          0.00999999	          0.46042358	          0.01167451	          0.00999999	          0.55937122	
          0.57268707	         -5.77090741	          4.78931605	         -8.69967553	          1.05532127	          0.96329633	         -0.00001802	        -10.60783784	         -8.15571692	         -3.96602347	        -33.43436819	        -10.65890740	         39.80043178	         33.47795975	          2.11829614	         -8.67028523	        -20.32632629	          5.22682021	          0.00523308	         -9.68215949	         -5.74018716	          8.84179372	          0.18779733	          0.05749506	          0.04526976	          0.00999999	          0.18049285	          0.00999999	          0.10104478	          0.00999999	          0.26073679	          0.00999999	          0.00999999	          0.13039075	          0.06263033	          0.18485374	          0.04703177	          0.04853956	          0.00999999	          0.34174965	          0.27457969	          0.06777468	          0.07992748	          0.31432824	          0.06425678	          0.00999999	          0.48522189	          0.00999999	          0.00999999	          0.49523847	
          0.58273421	         -5.71593281	          4.81560831	         -8.39821952	          1.07431343	          0.96537891	         -0.00070286	         -8.06741834	         -8.47511223	         -4.11710892	        -39.06087087	        -12.25529884	         35.13411949	         32.86796451	          2.44870536	         -8.44020051	        -21.43611310	          5.86956744	          0.00581280	         -9.68200261	         -5.98195103	          8.59638253	          0.20253974	          0.06776742	          0.07599938	          0.00999999	          0.15460404	          0.00999999	          0.08655152	          0.00999999	          0.22333827	          0.00999999	          0.00999999	          0.11168828	          0.05364701	          0.20350866	          0.04028581	          0.04157734	          0.00999999	          0.31508660	          0.23519563	          0.05805349	          0.06846316	          0.26924289	          0.05504018	          0.00999999	          0.48725693	          0.00999999	          0.00999999	          0.42420443	
